<?xml version="1.0"?>
<svg xmlns="http://www.w3.org/2000/svg" viewBox="0 0 64 64" width="512" height="512"><g id="flat"><path d="M37.551,39.449h0A104.926,104.926,0,0,1,13.926,57.191l-6.21,3.415A3.186,3.186,0,0,1,6.183,61h0A3.183,3.183,0,0,1,3,57.817H3a3.186,3.186,0,0,1,.394-1.533l3.415-6.21A104.926,104.926,0,0,1,24.551,26.449h0A104.906,104.906,0,0,1,43.132,11.667L56.244,3.472A3.116,3.116,0,0,1,57.892,3h0A3.109,3.109,0,0,1,61,6.108h0a3.116,3.116,0,0,1-.472,1.648L52.333,20.868A104.906,104.906,0,0,1,37.551,39.449Z" style="fill:#e8594a"/><path d="M40.923,27.741h0a3.964,3.964,0,0,0-1.084-3.58h0a3.964,3.964,0,0,0-3.58-1.084h0a9.838,9.838,0,0,0-5.026,2.69l-6.394,6.394a4.95,4.95,0,0,0,0,7h0a4.95,4.95,0,0,0,7,0l6.394-6.394A9.838,9.838,0,0,0,40.923,27.741Z" style="fill:#995023"/><path d="M33.792,37.208l2.987,2.986c.256-.25.519-.492.772-.745h0c.219-.219.43-.444.646-.665l-2.991-2.99Z" style="fill:#cf453f"/><path d="M28.206,28.794,25.216,25.8c-.221.216-.446.427-.665.646h0c-.253.253-.495.516-.745.772l2.986,2.987Z" style="fill:#cf453f"/><rect x="50.172" y="10" width="5.657" height="2" transform="translate(7.745 40.698) rotate(-45)" style="fill:#cf453f"/><rect x="40" y="18" width="2" height="2" style="fill:#7d411d"/><rect x="44" y="21" width="2" height="2" style="fill:#7d411d"/><path d="M9.707,52.707,8.293,51.293l8.172-8.172A8.6,8.6,0,0,0,19,37h2a10.584,10.584,0,0,1-3.121,7.535Z" style="fill:#cf453f"/><path d="M12.707,55.707l-1.414-1.414,8.172-8.172A10.584,10.584,0,0,1,27,43v2a8.6,8.6,0,0,0-6.121,2.535Z" style="fill:#cf453f"/><rect x="7" y="55" width="2" height="2" style="fill:#7d411d"/><rect x="26.856" y="27.131" width="10.127" height="9.899" rx="2" ry="2" transform="translate(-13.335 31.967) rotate(-45)" style="fill:#c9c9c9"/><path d="M26.647,33.969l-3.212,2.174a4.916,4.916,0,0,0,.635,1.986l4.017-2.72Z" style="fill:#663318"/><path d="M28.657,35.979,25.9,39.946a4.892,4.892,0,0,0,2,.623l2.189-3.153Z" style="fill:#663318"/><path d="M37.586,33.414a2,2,0,0,0,0-2.828l-4.172-4.172a2,2,0,0,0-2.828,0l-2.128,2.128,7,7Z" style="fill:#a6a6a6"/><rect x="31.469" y="4.936" width="2" height="55.066" transform="translate(-13.449 32.469) rotate(-45)" style="fill:#663318"/><path d="M7.911,3l4.994,4.994a7.152,7.152,0,0,1,1.881,6.792h0a7.152,7.152,0,0,1-6.792-1.881L3,7.911Z" style="fill:#fdb62f"/><path d="M56.089,61,51.1,56.006a7.152,7.152,0,0,1-1.881-6.792h0A7.152,7.152,0,0,1,56.006,51.1L61,56.089Z" style="fill:#fdb62f"/></g></svg>
